<svg xmlns="http://www.w3.org/2000/svg" enable-background="new 0 0 24 24" viewBox="0 0 24 24"><path d="M12,24C5.271,24,0,18.729,0,11.999C0,5.271,5.271,0,12,0c6.729,0,12,5.271,12,12S18.729,24,12,24z M12,1.5C6.112,1.5,1.5,6.112,1.5,11.999C1.5,17.887,6.112,22.5,12,22.5c5.888,0,10.5-4.612,10.5-10.5S17.888,1.5,12,1.5z"/><path d="M12.257 21.006c-5.107 0-9.262-4.149-9.262-9.25 0-.303.183-.577.463-.693.28-.116.603-.052.817.162l8.512 8.5c.215.214.279.537.163.817C12.834 20.823 12.56 21.006 12.257 21.006zM4.783 13.853c.73 2.59 2.778 4.635 5.372 5.364L4.783 13.853zM15.168 20.006c-.193 0-.382-.074-.524-.214L4.222 9.603C4.021 9.406 3.946 9.113 4.03 8.845c1.259-3.527 4.59-5.839 8.315-5.839 3.014 0 5.755 1.416 7.428 3.786.239.338.158.806-.18 1.045-.339.239-.807.159-1.045-.181-1.392-1.973-3.675-3.15-6.108-3.15-3.04 0-5.693 1.739-6.817 4.368l9.729 9.512c1.804-.75 3.251-2.245 3.918-4.017h-3.324c-.414 0-.75-.336-.75-.75s.336-.75.75-.75h4.324c.227 0 .44.102.583.278.143.176.198.407.15.628-.608 2.852-2.751 5.224-5.592 6.19C15.331 19.993 15.249 20.006 15.168 20.006z"/></svg>